<svg xmlns="http://www.w3.org/2000/svg" viewBox="0 0 64 64">
  <defs><clipPath id="scr"><rect x="13" y="22" width="28" height="22" rx="4"/></clipPath></defs>
  <line x1="32" y1="18" x2="20" y2="4" stroke="#c9cfda" stroke-width="3" stroke-linecap="round"/>
  <line x1="32" y1="18" x2="44" y2="4" stroke="#c9cfda" stroke-width="3" stroke-linecap="round"/>
  <circle cx="20" cy="4" r="2.6" fill="#c9cfda"/>
  <circle cx="44" cy="4" r="2.6" fill="#c9cfda"/>
  <rect x="8" y="17" width="48" height="32" rx="6" fill="#8a5f3c"/>
  <g clip-path="url(#scr)">
    <rect x="27" y="22" width="14" height="11" fill="#4d8dff"/>
    <rect x="27" y="33" width="14" height="11" fill="#ffd23f"/>
    <rect x="13" y="33" width="14" height="11" fill="#d62839"/>
    <rect x="13" y="22" width="14" height="11" fill="#a78bfa"/>
  </g>
  <circle cx="48.5" cy="27" r="2.6" fill="#f5d061"/>
  <circle cx="48.5" cy="37" r="2.6" fill="#f5d061"/>
  <g transform="translate(4,53) scale(0.28,0.6)">
    <path d="M3 10 C28 5 58 3.5 96 4.6 C132 5.6 166 3.8 197 6.4 C198 7 196 8 193 8.2 C160 7.4 128 9.4 95 9.8 C60 10.2 28 12.6 6 11.4 C3 11.2 2 10.4 3 10 Z" fill="#f5d061"/>
    <path d="M14 12.2 C40 11 70 10.8 92 11 C70 11.8 42 12.8 16 12.8 Z" fill="#f5d061" opacity=".55"/>
  </g>
</svg>
