<svg xmlns="http://www.w3.org/2000/svg" viewBox="0 0 64 64">
  <line x1="24" y1="14" x2="16" y2="3" stroke="#f5d061" stroke-width="3" stroke-linecap="round"/>
  <line x1="40" y1="14" x2="48" y2="3" stroke="#f5d061" stroke-width="3" stroke-linecap="round"/>
  <circle cx="16" cy="3" r="3" fill="#f5d061"/>
  <circle cx="48" cy="3" r="3" fill="#f5d061"/>
  <path d="M32 28 L32 11 A17 17 0 0 1 49 28 Z" fill="#4d8dff"/>
  <path d="M32 28 L49 28 A17 17 0 0 1 32 45 Z" fill="#ffd23f"/>
  <path d="M32 28 L32 45 A17 17 0 0 1 15 28 Z" fill="#d62839"/>
  <path d="M32 28 L15 28 A17 17 0 0 1 32 11 Z" fill="#a78bfa"/>
  <g transform="translate(4,51) scale(0.28,0.65)">
    <path d="M3 10 C28 5 58 3.5 96 4.6 C132 5.6 166 3.8 197 6.4 C198 7 196 8 193 8.2 C160 7.4 128 9.4 95 9.8 C60 10.2 28 12.6 6 11.4 C3 11.2 2 10.4 3 10 Z" fill="#f5d061"/>
    <path d="M14 12.2 C40 11 70 10.8 92 11 C70 11.8 42 12.8 16 12.8 Z" fill="#f5d061" opacity=".55"/>
  </g>
</svg>
